# xmcd
#
# Track frame offsets:
#	150
#	13671
#	35201
#	67139
#	81035
#	100599
#	122051
#	152534
#	175238
#	192055
#
# Disc length: 2867 seconds
#
# Revision: 1
# Processed by: cddbd v1.5.2PL0 Copyright (c) Steve Scherf et al.
# Submitted via: audiograbber 1.83.01
#
DISCID=7b0b310a
DTITLE=Nephwrack - The Once And Future King
DYEAR=2007
DGENRE=Thrash Metal
TTITLE0=Legion
TTITLE1=Blacks The Sky
TTITLE2=Cold Skin
TTITLE3=Fall Of Empires
TTITLE4=Teargas
TTITLE5=By The Light
TTITLE6=Leviathan Rises
TTITLE7=Underclass
TTITLE8=Cut Down
TTITLE9=Messiahs Day
EXTD=
EXTT0=
EXTT1=
EXTT2=
EXTT3=
EXTT4=
EXTT5=
EXTT6=
EXTT7=
EXTT8=
EXTT9=
PLAYORDER=
